<?xml version="1.0" encoding="UTF-8"?>
<svg id="Layer_2" data-name="Layer 2" xmlns="http://www.w3.org/2000/svg" viewBox="0 0 466.85 236.13">
  <defs>
    <style>
      .cls-1 {
        fill: #401201;
      }

      .cls-2 {
        fill: #0d0d0d;
      }

      .cls-3 {
        fill: #fff;
      }

      .cls-4 {
        fill: #a6886d;
      }

      .cls-5 {
        fill: #034aa6;
      }

      .cls-6 {
        fill: #0339a6;
      }
    </style>
  </defs>
  <g id="Furniture-app">
    <g id="design">
      <path class="cls-1" d="M0,230.27V25.2h97.56c53.32,0,87.89,16.11,87.89,61.52s-33.98,62.99-88.18,62.99h-21.09v80.57H0Z"/>
      <path class="cls-5" d="M76.17,146.78h21.09c26.07,0,42.77-4.69,49.66-7.76l-35.16-79.54c-10.11-22.85-16.7-31.35-31.49-31.35h-4.1v118.65Z"/>
      <path class="cls-4" d="M350.68,189.7c-9.08,17.87-31.79,46.44-77.05,46.44-57.28,0-86.72-42.48-86.72-84.23,0-50.83,35.89-82.76,87.3-82.76,60.94,0,81.74,42.63,81.74,84.38v.59h-92.14l33.54,76.03c25.78-6.59,42.19-25.78,49.95-40.43h3.37Z"/>
      <path class="cls-5" d="M231.59,81.15l30.91,70.02h18.6v-78.96c-2.2-.15-4.54-.15-6.88-.15-17.43,0-32.37,3.96-42.63,9.08Z"/>
      <path class="cls-6" d="M404,61.08c-20.21,0-36.33-11.72-38.09-33.84L427.88,0c8.06,5.86,13.62,16.85,13.62,29.15,0,19.04-16.26,31.93-37.5,31.93Z"/>
      <path class="cls-1" d="M436.52,231.45c16.7-4.1,27.39-16.11,27.39-41.75h2.93c0,34.72-19.19,46.44-46.14,46.44-22.41,0-48.63-7.18-48.63-46.44v-114.7h64.45v156.45Z"/>
      <path class="cls-2" d="M412.7,28.5c-7.49,0-14.46-5.74-15.11-15.25l25-11c2.98,2.52,4,7.24,4,12.53,0,8.18-6.02,13.72-13.89,13.72Z"/>
      <circle class="cls-3" cx="416.09" cy="16.75" r="7.5"/>
    </g>
  </g>
</svg>